<svg width="376" height="161" viewBox="0 0 376 161" fill="none" xmlns="http://www.w3.org/2000/svg">
<path d="M40.1818 54.1818V63.2727H4V54.1818H40.1818ZM14.5455 37.4545H25.2727V104C25.2727 107.03 25.7121 109.303 26.5909 110.818C27.5 112.303 28.6515 113.303 30.0455 113.818C31.4697 114.303 32.9697 114.545 34.5455 114.545C35.7273 114.545 36.697 114.485 37.4545 114.364C38.2121 114.212 38.8182 114.091 39.2727 114L41.4545 123.636C40.7273 123.909 39.7121 124.182 38.4091 124.455C37.1061 124.758 35.4545 124.909 33.4545 124.909C30.4242 124.909 27.4545 124.258 24.5455 122.955C21.6667 121.652 19.2727 119.667 17.3636 117C15.4848 114.333 14.5455 110.97 14.5455 106.909V37.4545Z" fill="#1D1D1D"/>
<path d="M372.182 54.1818V63.2727H336V54.1818H372.182ZM346.545 37.4545H357.273V104C357.273 107.03 357.712 109.303 358.591 110.818C359.5 112.303 360.652 113.303 362.045 113.818C363.47 114.303 364.97 114.545 366.545 114.545C367.727 114.545 368.697 114.485 369.455 114.364C370.212 114.212 370.818 114.091 371.273 114L373.455 123.636C372.727 123.909 371.712 124.182 370.409 124.455C369.106 124.758 367.455 124.909 365.455 124.909C362.424 124.909 359.455 124.258 356.545 122.955C353.667 121.652 351.273 119.667 349.364 117C347.485 114.333 346.545 110.97 346.545 106.909V37.4545Z" fill="#1D1D1D"/>
<path d="M299.818 124V54.1818H310.545V124H299.818ZM305.273 42.5455C303.182 42.5455 301.379 41.8333 299.864 40.4091C298.379 38.9848 297.636 37.2727 297.636 35.2727C297.636 33.2727 298.379 31.5606 299.864 30.1364C301.379 28.7121 303.182 28 305.273 28C307.364 28 309.152 28.7121 310.636 30.1364C312.152 31.5606 312.909 33.2727 312.909 35.2727C312.909 37.2727 312.152 38.9848 310.636 40.4091C309.152 41.8333 307.364 42.5455 305.273 42.5455Z" fill="#1D1D1D"/>
<path d="M241.182 125.455C234.879 125.455 229.348 123.955 224.591 120.955C219.864 117.955 216.167 113.758 213.5 108.364C210.864 102.97 209.545 96.6667 209.545 89.4545C209.545 82.1818 210.864 75.8333 213.5 70.4091C216.167 64.9848 219.864 60.7727 224.591 57.7727C229.348 54.7727 234.879 53.2727 241.182 53.2727C247.485 53.2727 253 54.7727 257.727 57.7727C262.485 60.7727 266.182 64.9848 268.818 70.4091C271.485 75.8333 272.818 82.1818 272.818 89.4545C272.818 96.6667 271.485 102.97 268.818 108.364C266.182 113.758 262.485 117.955 257.727 120.955C253 123.955 247.485 125.455 241.182 125.455ZM241.182 115.818C245.97 115.818 249.909 114.591 253 112.136C256.091 109.682 258.379 106.455 259.864 102.455C261.348 98.4545 262.091 94.1212 262.091 89.4545C262.091 84.7879 261.348 80.4394 259.864 76.4091C258.379 72.3788 256.091 69.1212 253 66.6364C249.909 64.1515 245.97 62.9091 241.182 62.9091C236.394 62.9091 232.455 64.1515 229.364 66.6364C226.273 69.1212 223.985 72.3788 222.5 76.4091C221.015 80.4394 220.273 84.7879 220.273 89.4545C220.273 94.1212 221.015 98.4545 222.5 102.455C223.985 106.455 226.273 109.682 229.364 112.136C232.455 114.591 236.394 115.818 241.182 115.818Z" fill="#1D1D1D"/>
<path fill-rule="evenodd" clip-rule="evenodd" d="M87.4545 52C81.2269 52.0286 75.7572 53.5285 71.0455 56.4996C66.3182 59.4996 62.6212 63.7117 59.9545 69.1359C57.3182 74.5602 56 80.9087 56 88.1814C56 95.3935 57.3182 101.697 59.9545 107.09C62.6212 112.484 66.3182 116.681 71.0455 119.681C75.7572 122.653 81.2269 124.152 87.4545 124.181V114.544C82.7487 114.514 78.8699 113.287 75.8182 110.863C72.7273 108.409 70.4394 105.181 68.9545 101.181C67.4697 97.1814 66.7273 92.8481 66.7273 88.1814C66.7273 83.5147 67.4697 79.1662 68.9545 75.1359C70.4394 71.1056 72.7273 67.8481 75.8182 65.3632C78.8699 62.9099 82.7487 61.6677 87.4545 61.6365V52Z" fill="#1D1D1D"/>
<path fill-rule="evenodd" clip-rule="evenodd" d="M145.864 119.136C150.319 122.076 155.455 123.545 161.273 123.545C165.758 123.545 169.349 122.803 172.046 121.318C174.743 119.803 176.819 118.091 178.273 116.182C179.728 114.242 180.849 112.636 181.637 111.364H182.91V122.091H193.273V29H182.546V63.3636H181.637C180.849 62.1515 179.743 60.6061 178.319 58.7273C176.925 56.8182 174.894 55.1212 172.228 53.6364C169.591 52.1212 166 51.3636 161.455 51.3636C155.576 51.3636 150.394 52.8333 145.91 55.7727C142.799 57.8111 140.163 60.4397 138 63.6585C140.688 66.6862 142.909 70.1947 144.538 74.0512C144.556 74.0038 144.574 73.9564 144.591 73.9091C146.106 69.9394 148.364 66.803 151.364 64.5C154.394 62.1667 158.182 61 162.728 61C167.091 61 170.758 62.1061 173.728 64.3182C176.697 66.5 178.94 69.5606 180.455 73.5C181.97 77.4091 182.728 81.9697 182.728 87.1818C182.728 92.4545 181.955 97.1061 180.41 101.136C178.864 105.136 176.606 108.273 173.637 110.545C170.667 112.788 167.031 113.909 162.728 113.909C158.243 113.909 154.485 112.727 151.455 110.364C148.937 108.355 146.932 105.77 145.439 102.608C144.061 106.566 142.076 110.208 139.606 113.403C141.421 115.654 143.507 117.565 145.864 119.136Z" fill="url(#paint0_linear_12_244)"/>
<path fill-rule="evenodd" clip-rule="evenodd" d="M97 124.181C97.0605 124.182 97.1211 124.182 97.1818 124.182C103.485 124.182 109 122.682 113.727 119.682C118.485 116.682 122.182 112.485 124.818 107.091C127.485 101.697 128.818 95.3939 128.818 88.1818C128.818 80.9091 127.485 74.5606 124.818 69.1364C122.182 63.7121 118.485 59.5 113.727 56.5C109 53.5 103.485 52 97.1818 52C97.1211 52 97.0605 52.0001 97 52.0004V61.637C97.0605 61.6366 97.1211 61.6364 97.1818 61.6364C101.97 61.6364 105.909 62.8788 109 65.3636C112.091 67.8485 114.379 71.1061 115.864 75.1364C117.348 79.1667 118.091 83.5152 118.091 88.1818C118.091 92.8485 117.348 97.1818 115.864 101.182C114.379 105.182 112.091 108.409 109 110.864C105.909 113.318 101.97 114.545 97.1818 114.545C97.1211 114.545 97.0605 114.545 97 114.545V124.181Z" fill="url(#paint1_linear_12_244)"/>
<defs>
<linearGradient id="paint0_linear_12_244" x1="246.591" y1="-1.90918" x2="246.591" y2="159.091" gradientUnits="userSpaceOnUse">
<stop stop-color="#409998"/>
<stop offset="1" stop-color="#153333"/>
</linearGradient>
<linearGradient id="paint1_linear_12_244" x1="125.5" y1="70.4546" x2="125.5" y2="223.455" gradientUnits="userSpaceOnUse">
<stop stop-color="#409998"/>
<stop offset="1" stop-color="#153333"/>
</linearGradient>
</defs>
</svg>
