<svg width="372" height="161" viewBox="0 0 372 161" fill="none" xmlns="http://www.w3.org/2000/svg">
<path fill-rule="evenodd" clip-rule="evenodd" d="M83.4545 52C77.2269 52.0286 71.7572 53.5285 67.0455 56.4996C62.3182 59.4996 58.6212 63.7117 55.9545 69.1359C53.3182 74.5602 52 80.9087 52 88.1814C52 95.3935 53.3182 101.697 55.9545 107.09C58.6212 112.484 62.3182 116.681 67.0455 119.681C71.7572 122.653 77.2269 124.152 83.4545 124.181V114.544C78.7487 114.514 74.8699 113.287 71.8182 110.863C68.7273 108.409 66.4394 105.181 64.9545 101.181C63.4697 97.1814 62.7273 92.8481 62.7273 88.1814C62.7273 83.5147 63.4697 79.1662 64.9545 75.1359C66.4394 71.1056 68.7273 67.8481 71.8182 65.3632C74.8699 62.9099 78.7487 61.6677 83.4545 61.6365V52Z" fill="#EAEAEA"/>
<path d="M368.182 54.1818V63.2727H332V54.1818H368.182ZM342.545 37.4545H353.273V104C353.273 107.03 353.712 109.303 354.591 110.818C355.5 112.303 356.652 113.303 358.045 113.818C359.47 114.303 360.97 114.545 362.545 114.545C363.727 114.545 364.697 114.485 365.455 114.364C366.212 114.212 366.818 114.091 367.273 114L369.455 123.636C368.727 123.909 367.712 124.182 366.409 124.455C365.106 124.758 363.455 124.909 361.455 124.909C358.424 124.909 355.455 124.258 352.545 122.955C349.667 121.652 347.273 119.667 345.364 117C343.485 114.333 342.545 110.97 342.545 106.909V37.4545Z" fill="#EAEAEA"/>
<path d="M295.818 124V54.1818H306.545V124H295.818ZM301.273 42.5455C299.182 42.5455 297.379 41.8333 295.864 40.4091C294.379 38.9848 293.636 37.2727 293.636 35.2727C293.636 33.2727 294.379 31.5606 295.864 30.1364C297.379 28.7121 299.182 28 301.273 28C303.364 28 305.152 28.7121 306.636 30.1364C308.152 31.5606 308.909 33.2727 308.909 35.2727C308.909 37.2727 308.152 38.9848 306.636 40.4091C305.152 41.8333 303.364 42.5455 301.273 42.5455Z" fill="#EAEAEA"/>
<path d="M237.182 125.455C230.879 125.455 225.348 123.955 220.591 120.955C215.864 117.955 212.167 113.758 209.5 108.364C206.864 102.97 205.545 96.6667 205.545 89.4545C205.545 82.1818 206.864 75.8333 209.5 70.4091C212.167 64.9848 215.864 60.7727 220.591 57.7727C225.348 54.7727 230.879 53.2727 237.182 53.2727C243.485 53.2727 249 54.7727 253.727 57.7727C258.485 60.7727 262.182 64.9848 264.818 70.4091C267.485 75.8333 268.818 82.1818 268.818 89.4545C268.818 96.6667 267.485 102.97 264.818 108.364C262.182 113.758 258.485 117.955 253.727 120.955C249 123.955 243.485 125.455 237.182 125.455ZM237.182 115.818C241.97 115.818 245.909 114.591 249 112.136C252.091 109.682 254.379 106.455 255.864 102.455C257.348 98.4545 258.091 94.1212 258.091 89.4545C258.091 84.7879 257.348 80.4394 255.864 76.4091C254.379 72.3788 252.091 69.1212 249 66.6364C245.909 64.1515 241.97 62.9091 237.182 62.9091C232.394 62.9091 228.455 64.1515 225.364 66.6364C222.273 69.1212 219.985 72.3788 218.5 76.4091C217.015 80.4394 216.273 84.7879 216.273 89.4545C216.273 94.1212 217.015 98.4545 218.5 102.455C219.985 106.455 222.273 109.682 225.364 112.136C228.455 114.591 232.394 115.818 237.182 115.818Z" fill="#EAEAEA"/>
<path fill-rule="evenodd" clip-rule="evenodd" d="M36.1818 54.1819V63.2728H21.2727V104C21.2727 107.03 21.7121 109.303 22.5909 110.818C23.5 112.303 24.6515 113.303 26.0455 113.818C27.4697 114.303 28.9697 114.546 30.5455 114.546C31.7273 114.546 32.697 114.485 33.4545 114.364L35.2727 114L37.4545 123.636C36.7273 123.909 35.7121 124.182 34.4091 124.455C33.1061 124.758 31.4545 124.909 29.4545 124.909C26.4242 124.909 23.4545 124.258 20.5455 122.955C17.6667 121.652 15.2727 119.667 13.3636 117C11.4848 114.333 10.5455 110.97 10.5455 106.909V63.2728H0V54.1819H10.5455V37.4546H21.2727V54.1819H36.1818Z" fill="#EAEAEA"/>
<path fill-rule="evenodd" clip-rule="evenodd" d="M141.864 119.136C146.319 122.076 151.455 123.545 157.273 123.545C161.758 123.545 165.349 122.803 168.046 121.318C170.743 119.803 172.819 118.091 174.273 116.182C175.728 114.242 176.849 112.636 177.637 111.364H178.91V122.091H189.273V29H178.546V63.3636H177.637C176.849 62.1515 175.743 60.6061 174.319 58.7273C172.925 56.8182 170.894 55.1212 168.228 53.6364C165.591 52.1212 162 51.3636 157.455 51.3636C151.576 51.3636 146.394 52.8333 141.91 55.7727C138.799 57.8111 136.163 60.4397 134 63.6585C136.688 66.6862 138.909 70.1947 140.538 74.0512C140.556 74.0038 140.574 73.9564 140.591 73.9091C142.106 69.9394 144.364 66.803 147.364 64.5C150.394 62.1667 154.182 61 158.728 61C163.091 61 166.758 62.1061 169.728 64.3182C172.697 66.5 174.94 69.5606 176.455 73.5C177.97 77.4091 178.728 81.9697 178.728 87.1818C178.728 92.4545 177.955 97.1061 176.41 101.136C174.864 105.136 172.606 108.273 169.637 110.545C166.667 112.788 163.031 113.909 158.728 113.909C154.243 113.909 150.485 112.727 147.455 110.364C144.937 108.355 142.932 105.77 141.439 102.608C140.061 106.566 138.076 110.208 135.606 113.403C137.421 115.654 139.507 117.565 141.864 119.136Z" fill="url(#paint0_linear_10_185)"/>
<path fill-rule="evenodd" clip-rule="evenodd" d="M93 124.181C93.0605 124.182 93.1211 124.182 93.1818 124.182C99.4848 124.182 105 122.682 109.727 119.682C114.485 116.682 118.182 112.485 120.818 107.091C123.485 101.697 124.818 95.3939 124.818 88.1818C124.818 80.9091 123.485 74.5606 120.818 69.1364C118.182 63.7121 114.485 59.5 109.727 56.5C105 53.5 99.4848 52 93.1818 52C93.1211 52 93.0605 52.0001 93 52.0004V61.637C93.0605 61.6366 93.1211 61.6364 93.1818 61.6364C97.9697 61.6364 101.909 62.8788 105 65.3636C108.091 67.8485 110.379 71.1061 111.864 75.1364C113.348 79.1667 114.091 83.5152 114.091 88.1818C114.091 92.8485 113.348 97.1818 111.864 101.182C110.379 105.182 108.091 108.409 105 110.864C101.909 113.318 97.9697 114.545 93.1818 114.545C93.1211 114.545 93.0605 114.545 93 114.545V124.181Z" fill="url(#paint1_linear_10_185)"/>
<defs>
<linearGradient id="paint0_linear_10_185" x1="242.591" y1="-1.90918" x2="242.591" y2="159.091" gradientUnits="userSpaceOnUse">
<stop stop-color="#409998"/>
<stop offset="1" stop-color="#153333"/>
</linearGradient>
<linearGradient id="paint1_linear_10_185" x1="121.5" y1="70.4546" x2="121.5" y2="223.455" gradientUnits="userSpaceOnUse">
<stop stop-color="#409998"/>
<stop offset="1" stop-color="#153333"/>
</linearGradient>
</defs>
</svg>
